<svg xmlns="http://www.w3.org/2000/svg" viewBox="0 0 3495.2 857.8"><style>.st{fill:#3f52b5}</style><path class="st" d="M2878.9 370.7h54.2l46.7 137.9 31.6-137.9h59l32.7 137.1 46.5-137.1h52.8l-68.7 202.7h-57.3l-36.1-136.3-35 136.3h-57.7l-68.7-202.7z" id="Layer_11"/><path class="st" d="M2875.2 510.5c-6.3 21.7-17.9 38.6-34.8 50.7-16.9 12-37 18.1-60.3 18.1-31.2 0-56.2-9.7-75.2-29.1-19-19.4-28.5-45-28.5-77 0-31.4 9.6-57.3 28.7-77.8 19.1-20.4 43.5-30.6 73.1-30.6 30.6 0 55 10.4 73.1 31.2 18.1 20.8 27.1 49 27.1 84.6v5.5H2733c.3 17.5 4.5 30.9 12.8 40.1 8.2 9.2 19.8 13.7 34.8 13.7 19.6 0 33.4-9.8 41.2-29.5h53.4zm-53.5-59.7c-1.3-13.4-5.6-24.3-13-32.8-7.3-8.5-17.5-12.8-30.6-12.8-12.3 0-22.5 4.1-30.6 12.2-8.1 8.1-13 19.2-14.5 33.4h88.7z" id="Layer_12"/><path class="st" d="M2509.3 370.7h55.4L2496 573.4h-62.5L2364 370.7h58.9l43.2 138.3 43.2-138.3z" id="Layer_13"/><path class="st" d="M2357 510.5c-6.3 21.7-17.9 38.6-34.8 50.7-16.9 12-37 18.1-60.3 18.1-31.2 0-56.2-9.7-75.2-29.1-19-19.4-28.5-45-28.5-77 0-31.4 9.6-57.3 28.7-77.8 19.1-20.4 43.5-30.6 73.1-30.6 30.6 0 55 10.4 73.1 31.2 18.1 20.8 27.1 49 27.1 84.6v5.5h-145.3c.3 17.5 4.5 30.9 12.8 40.1 8.2 9.2 19.8 13.7 34.8 13.7 19.6 0 33.4-9.8 41.2-29.5h53.3zm-53.4-59.7c-1.3-13.4-5.6-24.3-13-32.8-7.3-8.5-17.5-12.8-30.6-12.8-12.3 0-22.5 4.1-30.6 12.2-8.1 8.1-13 19.2-14.5 33.4h88.7z" id="Layer_14"/><path class="st" d="M2138.3 366.2c-1.9-.2-3.5-.3-4.7-.3h-2.2c-1.1 0-2.4.1-3.9.2-27.3 1.8-47.1 15.7-59.6 41.8v-37.3h-53v202.7h55.8v-92.7c0-19.6 4.3-35.3 13-46.9 8.6-11.6 22.1-17.5 40.5-17.5 6.5 0 13.7.8 21.6 2.4l.7-2.2 15.2-44.8c-7.2-2.9-15-4.7-23.4-5.4z" id="Layer_2"/><path class="st" d="M1960.6 316.3c-18.5-15.1-43.4-22.6-74.8-22.6h-96.6l-18.4 54.3v225.3h55.3V472.8h62.8c29.6 0 53.5-7.5 71.9-22.6 18.3-15.1 27.5-37.2 27.5-66.6 0-29.8-9.2-52.2-27.7-67.3zm-79.9 108.2h-54.6V344h55c31.7 0 47.5 13.5 47.5 40.5 0 26.6-15.9 40-47.9 40z" id="Layer_8"/><path class="st" d="M1617 441.4l-16.9 49.9h101l16.9-49.9z" id="Layer_3"/><path class="st" d="M1543.5 415.7v-45h-41.2v-61.3h-38.7l-16.7 49.3v12h-33.8v45h33.8v98c0 24.4 4.4 40.8 13.2 49.3 8.8 8.5 25.3 12.8 49.7 12.8 5.5 0 11.8-.2 19.1-.6l14.7-43.4c-4.5.5-10.1.8-16.9.8-6 0-10.7-.5-13.9-1.4-3.3-.9-5.7-2.8-7.3-5.7-1.6-2.9-2.5-5.7-2.7-8.4-.3-2.7-.4-7.1-.4-13.2v-88.2h41.1z" id="Layer_4"/><path class="st" d="M1370.4 384c-12.6-12.6-29.7-18.9-51.5-18.9-26.8 0-48.4 10.3-64.9 30.9v-25.4h-36.8l-18.4 54.3v148.3h55.4V464.6c0-35.6 14.7-53.4 44-53.4 13.6 0 22.8 3.7 27.5 11.2 4.7 7.5 7.1 18.4 7.1 32.8v118.2h56.6V437.9c-.1-23.3-6.4-41.3-19-53.9z" id="Layer_6"/><path class="st" d="M1164.6 573.4H1108c-1.8-5.2-3.1-11.8-3.9-19.6-17 17-38.9 25.5-65.6 25.5-22.5 0-40.2-5.4-53-16.3-12.8-10.9-19.2-25.9-19.2-45 0-8.6 1.1-16.2 3.3-22.8 2.2-6.5 5.9-12 11-16.5 5.1-4.4 9.9-8.1 14.5-11 4.6-2.9 10.9-5.2 19-7.1 8.1-1.8 14.7-3.2 19.6-4.1 5-.9 11.9-1.9 20.8-2.9 19.6-2.6 32.8-5.4 39.5-8.2 6.7-2.9 10-8.2 10-16.1 0-18.1-12.2-27.1-36.5-27.1-12.8 0-22.3 2.3-28.3 6.9-6 4.6-10 12.6-11.8 24.2h-52.2c3.1-45.6 34.4-68.3 93.9-68.3 58.9 0 88.4 22 88.4 66v87.6c0 25.4 2.4 43.8 7.1 54.8zm-60.9-98.6c-6.5 3.9-19.6 7.5-39.3 10.6-16.5 2.6-27.2 5.9-32.2 9.8-5.8 4.7-8.6 11.5-8.6 20.4 0 8.4 2.7 15 8.1 19.8 5.4 4.8 12.9 7.3 22.6 7.3 14.9 0 26.9-4 35.9-12s13.6-19 13.6-33.2v-22.7z" id="Layer_15"/><path class="st" d="M946.9 415.7v-45h-41.2v-61.3H867l-16.7 49.3v12h-33.8v45h33.8v98c0 24.4 4.4 40.8 13.2 49.3 8.8 8.5 25.3 12.8 49.7 12.8 5.5 0 11.8-.2 19.1-.6l14.7-43.4c-4.5.5-10.1.8-16.9.8-6 0-10.7-.5-13.9-1.4-3.3-.9-5.7-2.8-7.3-5.7-1.6-2.9-2.5-5.7-2.7-8.4-.3-2.7-.4-7.1-.4-13.2v-88.2h41.1z" id="Layer_5"/><path class="st" d="M796.1 429.6h-51.8c-1.6-10.2-5.4-17.4-11.6-21.6-6.2-4.2-15.1-6.3-26.9-6.3-10 0-17.7 1.8-23.2 5.3s-8.2 8.4-8.2 14.7c0 7.3 3.1 12.4 9.4 15.3 6.3 2.9 17.5 6 33.8 9.4 2.9.5 5 .9 6.3 1.2 9.4 1.8 17 3.5 22.6 4.9 5.6 1.4 12.5 3.8 20.6 7.1 8.1 3.3 14.4 6.9 18.9 11 4.4 4.1 8.4 9.5 11.8 16.3 3.4 6.8 5.1 14.7 5.1 23.6 0 21.2-8.2 38-24.7 50.3-16.5 12.3-39.1 18.5-67.9 18.5-27.5 0-50.1-5.9-68-17.7-17.8-11.8-26.8-29.9-27.1-54.2h53c1.8 22.5 16.2 33.8 43.2 33.8 11.3 0 20.2-2.3 26.9-6.9 6.7-4.6 10-10.7 10-18.3 0-7.6-3-13-9-16.1-6-3.1-17.2-6.5-33.4-10.2-1.3-.3-2.4-.5-3.1-.8-1.8-.5-5.9-1.4-12.2-2.7-6.3-1.3-10.7-2.3-13.2-2.9-2.5-.7-6.5-1.8-12.2-3.3-5.6-1.6-9.8-3.1-12.4-4.5-2.6-1.4-6.1-3.3-10.4-5.5-4.3-2.2-7.5-4.6-9.6-7.3-2.1-2.6-4.4-5.7-6.9-9.2-2.5-3.5-4.2-7.5-5.1-12-.9-4.4-1.4-9.3-1.4-14.5 0-19.9 7.7-35.2 23.2-46 15.4-10.7 37.3-16.1 65.6-16.1 25.4 0 46.2 5.2 62.5 15.7 16.1 10.4 24.6 26.8 25.4 49z" id="Layer_16"/><path class="st" d="M565.8 384c-12.6-12.6-29.7-18.9-51.5-18.9-26.8 0-48.4 10.3-64.9 30.9v-25.4h-36.8L394.1 425v148.3h55.4V464.6c0-35.6 14.7-53.4 44-53.4 13.6 0 22.8 3.7 27.5 11.2 4.7 7.5 7.1 18.4 7.1 32.8v118.2h56.6V437.9c-.1-23.3-6.4-41.3-18.9-53.9z" id="Layer_7"/><path class="st" d="M311.1 293.7L292.7 348v225.4h55.2V293.7z" id="Layer_9"/><g id="Layer_10"><path class="st" d="M2587.5 370.7v202.7h55.8V370.7h-39.6zM2603.7 293.7l-16 47.1h55.6v-47.1z"/></g></svg>
