<svg xmlns="http://www.w3.org/2000/svg" viewBox="0 0 480 480"><path d="m440.960938 293.839844 6.878906 66.160156-60.800782 27.121094-27.039062 60.71875-66.160156-6.878906-53.839844 39.039062-53.839844-39.039062-66.160156 6.878906-27.121094-60.800782-60.71875-27.039062 6.878906-66.160156-39.039062-53.839844 39.039062-53.839844-6.878906-66.160156 60.800782-27.121094 27.039062-60.71875 66.160156 6.878906 53.839844-39.039062 53.839844 39.039062 66.160156-6.878906 27.121094 60.800782 60.71875 27.039062-6.878906 66.160156 39.039062 53.839844zm0 0" fill="#3195f3"/><path d="m350.398438 177.601562-22.636719-22.640624-135.761719 135.757812-45.28125-45.199219-22.640625 22.558594 67.921875 67.921875zm0 0" fill="#fff"/></svg>
